<svg width="116.41090698242188px" height="121.55370788574218px" xmlns="http://www.w3.org/2000/svg" viewBox="191.79454650878907 14.223146057128908 116.41090698242188 121.55370788574218" style="background: rgba(0, 0, 0, 0);" preserveAspectRatio="xMidYMid"><defs><filter id="editing-jagged" x="-100%" y="-100%" width="300%" height="300%"><feTurbulence result="turb" baseFrequency="0.1" numOctaves="1" seed="1"></feTurbulence><feDisplacementMap in="SourceGraphic" in2="turb" scale="10"></feDisplacementMap></filter></defs><g filter="url(#editing-jagged)"><g transform="translate(219.23307847976685, 102.52000427246094)"><path d="M-6.98 8.83L-6.98 8.83L-6.98 8.83Q-3.71 8.45-1.66 4.22L-1.66 4.22L-1.66 4.22Q0.45-0.06 2.37-9.92L2.37-9.92L8.58-42.24L22.46-42.24L16.26-9.92L16.26-9.92Q13.89 2.62 9.98 7.55L9.98 7.55L9.98 7.55Q7.94 10.11 5.34 11.14L5.34 11.14L5.34 11.14Q2.75 12.16-0.06 12.16L-0.06 12.16L-0.06 12.16Q-2.88 12.16-4.70 11.14L-4.70 11.14L-4.70 11.14Q-6.53 10.11-6.98 8.83ZM23.23-0.32L23.23-0.32L31.30-42.24L31.30-42.24Q38.85-42.88 43.71-42.88L43.71-42.88L43.71-42.88Q48.58-42.88 51.71-42.46L51.71-42.46L51.71-42.46Q54.85-42.05 56.96-40.96L56.96-40.96L56.96-40.96Q61.18-38.91 61.18-33.28L61.18-33.28L61.18-33.28Q61.18-30.02 58.37-27.26L58.37-27.26L58.37-27.26Q55.74-24.77 52.86-24.19L52.86-24.19L52.86-24.19Q55.94-23.68 58.11-21.38L58.11-21.38L58.11-21.38Q60.42-18.94 60.42-15.17L60.42-15.17L60.42-15.17Q60.42-7.87 54.98-3.62L54.98-3.62L54.98-3.62Q49.54 0.64 38.85 0.64L38.85 0.64L38.85 0.64Q31.49 0.64 23.23-0.32ZM40.64-20.61L37.44-4.03L37.44-4.03Q38.02-3.97 38.14-3.97L38.14-3.97L38.72-3.97L38.72-3.97Q43.97-3.97 46.21-7.42L46.21-7.42L46.21-7.42Q47.87-10.11 47.87-15.04L47.87-15.04L47.87-15.04Q47.87-17.66 46.18-19.07L46.18-19.07L46.18-19.07Q44.48-20.48 40.64-20.61L40.64-20.61ZM50.37-33.22L50.37-33.22L50.37-33.22Q50.37-38.53 45.25-38.53L45.25-38.53L44.67-38.53L44.67-38.53Q44.42-38.53 44.03-38.46L44.03-38.46L41.47-24.96L42.11-24.96L42.11-24.96Q50.37-25.15 50.37-33.22Z" fill="#444"></path></g></g><style>text {
  font-size: 64px;
  font-family: Arial Black;
  dominant-baseline: central;
  text-anchor: middle;
}</style></svg>